<svg id="Ebene_1" xmlns="http://www.w3.org/2000/svg" viewBox="0 0 67.89 65.02"><defs><style>.cls-1{fill:#efab00}</style></defs><g id="Gruppe_52"><g id="Gruppe_4"><path id="Pfad_4" class="cls-1" d="M53.82 15.43H35.18S14.89 58.92 14.63 59.49c-.41.95-.9 1.87-1.44 2.75a6.401 6.401 0 0 1-3.07 2.53v.26h10.99a5.716 5.716 0 0 0 4.55-2.78c.64-1.1 1.21-2.25 1.44-2.75s6.83-14.65 6.83-14.65h12.35c5.88 0 18.49-1.9 21.22-15.12 2.68-12.96-9.18-14.3-13.68-14.3m2.05 14.54c-1.08 5.22-6.26 5.97-8.37 5.97h-9.4l5.39-11.61h6.98c1.64 0 6.46.53 5.4 5.64"/></g><g id="Gruppe_5"><path id="Pfad_5" class="cls-1" d="M41.5 0h-.29c-.98.93-2.24 1.53-3.58 1.71-.83.1-1.66.15-2.5.14H11.4c-.23 0-1.96.01-3.12.14-1.88.2-3.54 1.3-4.45 2.95C3.41 5.85 0 13.15 0 13.15h29.26c.22 0 1.83-.03 3.1-.14a5.725 5.725 0 0 0 4.45-2.95c.36-.78 4.7-10.07 4.7-10.07"/></g></g></svg>